<svg width="25" height="26" viewBox="0 0 25 26" fill="none" xmlns="http://www.w3.org/2000/svg">
<g id="Icon">
<path id="Vector" d="M11.7173 9.06548C13.3177 8.63666 14.2674 6.99165 13.8386 5.39125C13.4098 3.79085 11.7648 2.8411 10.1644 3.26993C8.56398 3.69876 7.61423 5.34377 8.04306 6.94416C8.47188 8.54456 10.1169 9.49431 11.7173 9.06548Z" stroke="#F33D01" stroke-width="2" stroke-linecap="round" stroke-linejoin="round"/>
<path id="Vector_2" d="M15.3408 22.5884L11.7173 9.06543" stroke="#F33D01" stroke-width="2" stroke-linecap="round" stroke-linejoin="round"/>
<path id="Vector_3" d="M5.99104 14.7408L3.09326 15.5172C3.77969 18.079 5.45568 20.2632 7.75252 21.5893C10.0494 22.9154 12.7789 23.2747 15.3407 22.5883C17.9025 21.9018 20.0867 20.2259 21.4128 17.929C22.7389 15.6322 23.0982 12.9026 22.4118 10.3408L19.514 11.1173" stroke="#F33D01" stroke-width="2" stroke-linecap="round" stroke-linejoin="round"/>
</g>
</svg>
