<svg width="28" height="26" viewBox="0 0 28 26" fill="none" xmlns="http://www.w3.org/2000/svg">
<g id="Icon">
<path id="Vector" d="M20.7036 7.96061L12.0102 10.29C10.9433 10.5759 10.3101 11.6725 10.596 12.7395L12.9254 21.4328C13.2113 22.4997 14.3079 23.1329 15.3749 22.847L24.0682 20.5176C25.1351 20.2318 25.7683 19.1351 25.4824 18.0682L23.153 9.37482C22.8672 8.30789 21.7705 7.67472 20.7036 7.96061Z" stroke="#F33D01" stroke-width="2" stroke-linecap="round" stroke-linejoin="round"/>
<path id="Vector_2" d="M7.76755 17.6385L6.80163 17.8973C6.28927 18.0346 5.74336 17.9627 5.28399 17.6975C4.82462 17.4323 4.48942 16.9955 4.35214 16.4831L2.02277 7.78976C1.88548 7.2774 1.95735 6.73149 2.22257 6.27212C2.48778 5.81276 2.92462 5.47756 3.43698 5.34027L12.1303 3.0109C12.6427 2.87361 13.1886 2.94549 13.6479 3.2107C14.1073 3.47592 14.4425 3.91276 14.5798 4.42511L14.8386 5.39104" stroke="#F33D01" stroke-width="2" stroke-linecap="round" stroke-linejoin="round"/>
</g>
</svg>
