<svg width="168" height="59" viewBox="0 0 168 59" fill="none" xmlns="http://www.w3.org/2000/svg">
<g id="mixology-logo">
<path id="Subtract" fill-rule="evenodd" clip-rule="evenodd" d="M122.898 38.1148C62.7818 41.233 18.4622 50.1381 1.44243 55.0793C0.381639 55.3873 -0.228712 56.4968 0.079393 57.5576C0.387254 58.6184 1.49687 59.2287 2.55766 58.9207C19.0965 54.1191 62.4712 45.3724 121.496 42.1945L122.898 38.1148ZM133.792 41.6248C136.594 41.516 139.427 41.4202 142.29 41.3384L143.679 37.2985C140.804 37.3755 137.958 37.4665 135.143 37.5707L133.792 41.6248ZM155.813 37.0622L154.473 41.08C158.269 41.0273 162.112 41 166 41C167.105 41 168 40.1046 168 39C168 37.8954 167.105 37 166 37C162.569 37 159.172 37.0212 155.813 37.0622Z" fill="#F33D01"/>
<g id="Logo">
<path d="M36.211 41.7664C36.2446 40.4449 36.2923 38.9152 36.3543 37.1774C36.4163 35.4396 36.4875 33.6244 36.5678 31.7318C36.647 29.8239 36.7256 27.9084 36.8036 25.9853C36.8967 24.0611 36.9919 22.2593 37.089 20.5801C36.4061 22.198 35.7162 23.8243 35.0193 25.4587C34.3223 27.0931 33.6574 28.6483 33.0244 30.1244C32.4055 31.584 31.8295 32.9098 31.2965 34.1019C30.7787 35.2929 30.3575 36.2538 30.0328 36.9848C29.7205 37.4848 29.4064 37.9619 29.0906 38.4162C28.7747 38.8704 28.4546 39.2713 28.1303 39.6189C27.8213 39.9653 27.5074 40.2507 27.1887 40.4751C26.8688 40.6843 26.5493 40.8015 26.2303 40.8266C25.8048 40.8601 25.4558 40.7956 25.1831 40.633C24.9256 40.4692 24.7824 40.2044 24.7537 39.8387C24.7477 39.7625 24.7423 39.6939 24.7375 39.6329C24.7467 39.5555 24.7634 39.4775 24.7878 39.3989C24.5263 37.2418 24.2864 35.0677 24.0681 32.8765C23.8486 30.6701 23.6549 28.5001 23.487 26.3663C23.4474 25.8633 23.4078 25.3604 23.3682 24.8574C23.3286 24.3544 23.2972 23.8585 23.274 23.3696C22.7742 24.7891 22.2255 26.2662 21.6277 27.8008C21.0299 29.3354 20.4006 30.8572 19.7396 32.3661C19.0775 33.8597 18.3889 35.3095 17.674 36.7153C16.9579 38.1058 16.2328 39.3821 15.4987 40.544C14.7634 41.6907 14.0236 42.6844 13.2795 43.5251C12.5494 44.3494 11.8317 44.9426 11.1264 45.3048C10.5086 45.6141 9.96843 45.8407 9.50581 45.9844C9.04439 46.1434 8.63135 46.2373 8.26669 46.266C7.71971 46.309 7.30047 46.227 7.00898 46.0199C6.73389 45.8269 6.58375 45.5703 6.55856 45.2503C6.52857 44.8692 6.65692 44.4604 6.94361 44.0238C7.2303 43.5871 7.65334 43.2318 8.21272 42.9577C8.89005 42.6284 9.60238 41.9666 10.3497 40.9723C11.111 39.9616 11.8795 38.7509 12.6552 37.3403C13.4309 35.9297 14.2022 34.3661 14.9691 32.6495C15.736 30.9329 16.4707 29.1958 17.1732 27.4383C17.891 25.6795 18.5585 23.9631 19.1759 22.2889C19.792 20.5995 20.3372 19.0767 20.8114 17.7205C21.2856 16.3643 21.6709 15.2375 21.9672 14.34C22.2774 13.4262 22.4698 12.8589 22.5441 12.6384C22.7197 12.1492 22.989 11.7829 23.352 11.5396C23.7151 11.2964 24.0941 11.1592 24.4892 11.1281C25.0362 11.0851 25.428 11.2076 25.6647 11.4957C25.9002 11.7685 26.048 12.2859 26.108 13.048C26.3051 13.9986 26.4752 14.8977 26.6183 15.7453C26.7755 16.5764 26.9198 17.4391 27.0514 18.3336C27.1817 19.2128 27.2953 20.17 27.392 21.2052C27.5028 22.224 27.611 23.404 27.7165 24.7452C27.7921 25.7054 27.8527 26.7665 27.8982 27.9284C27.959 29.0891 28.0458 30.3858 28.1585 31.8185C29.7203 28.3524 31.1006 25.2993 32.2993 22.6593C33.512 20.0028 34.5678 17.7804 35.4667 15.992C36.3795 14.1873 37.1588 12.8224 37.8046 11.8974C38.4491 10.9572 38.9841 10.4704 39.4095 10.4369L39.5691 10.4244C39.6147 10.4208 39.6603 10.4172 39.7058 10.4136C39.7502 10.3948 39.7952 10.3836 39.8408 10.38C40.2054 10.3513 40.5121 10.5572 40.7608 10.9977C41.0095 11.4382 41.1627 12.0242 41.2202 12.7558C41.2182 13.5074 41.2002 14.4443 41.1663 15.5665C41.1323 16.6886 41.0845 17.9269 41.0229 19.2813C40.9753 20.6193 40.9185 22.0346 40.8526 23.5274C40.7866 25.0201 40.72 26.5052 40.6528 27.9828C40.5845 29.445 40.5207 30.8686 40.4615 32.2535C40.4175 33.6371 40.3861 34.8895 40.3673 36.0104C40.3526 36.211 40.3536 36.4179 40.3703 36.6313C40.3859 36.8294 40.4021 37.0352 40.4189 37.2486C40.4501 37.6448 40.4895 38.0481 40.5371 38.4585C40.5835 38.8535 40.6222 39.2492 40.6534 39.6455C40.6894 40.1027 40.7032 40.5694 40.6948 41.0454C40.6852 41.5063 40.5891 41.9356 40.4063 42.3333C40.2376 42.7147 39.9419 43.037 39.5193 43.3003C39.0978 43.5788 38.4997 43.7486 37.7248 43.8096C37.3145 43.8419 36.9753 43.7075 36.707 43.4066C36.4399 43.1209 36.2745 42.5742 36.211 41.7664Z" fill="black"/>
<path d="M49.3487 20.3889C49.3211 20.0384 49.3537 19.6754 49.4464 19.3001C49.5532 18.9083 49.7237 18.5498 49.958 18.2247C50.1923 17.8995 50.4916 17.6229 50.8559 17.3949C51.2353 17.1657 51.6909 17.0301 52.2227 16.9883C53.104 16.9189 53.7332 17.0457 54.1102 17.3688C54.4861 17.6766 54.6944 18.0896 54.7352 18.6078C54.7579 18.8974 54.7224 19.2222 54.6284 19.5824C54.5496 19.9413 54.4083 20.2821 54.2044 20.6049C53.9992 20.9124 53.7221 21.1796 53.3731 21.4064C53.024 21.6332 52.5988 21.7664 52.0974 21.8059C51.1554 21.88 50.483 21.7872 50.0804 21.5275C49.6765 21.2526 49.4326 20.8731 49.3487 20.3889ZM47.2465 25.7302C47.4712 25.2831 47.7435 24.9549 48.0634 24.7457C48.3832 24.5365 48.7179 24.4182 49.0674 24.3907C49.6447 24.3452 50.1535 24.4969 50.5938 24.8456C51.048 25.1779 51.2979 25.6337 51.3435 26.2129C51.3391 26.3512 51.3271 26.4902 51.3075 26.6298C51.3031 26.7681 51.2683 26.9089 51.2031 27.052C51.0216 27.465 50.8733 27.8141 50.7581 28.0992C50.6429 28.3843 50.5342 28.6536 50.4318 28.907C50.3435 29.144 50.2551 29.381 50.1667 29.618C50.0784 29.855 49.9708 30.1395 49.8441 30.4715C49.6917 30.8669 49.5196 31.3021 49.3277 31.7773C49.1345 32.2373 48.9502 32.7118 48.7747 33.2011C48.6143 33.6891 48.4762 34.1677 48.3602 34.6369C48.2595 35.1049 48.2241 35.5294 48.2541 35.9104C48.2865 36.3219 48.4068 36.5885 48.6151 36.7101C48.8374 36.8153 49.1385 36.853 49.5184 36.8231C49.9438 36.7896 50.3772 36.6635 50.8187 36.4447C51.2753 36.2247 51.7277 35.9514 52.1759 35.6248C52.6242 35.2981 53.0618 34.934 53.4888 34.5323C53.9147 34.1154 54.3101 33.7009 54.6752 33.2888C55.0554 32.8754 55.4936 32.523 55.8003 32.1462C56.1222 31.7681 56.5453 31.6404 56.7516 31.3481C57.0327 31.0346 57.0714 30.6158 57.3753 30.5919C57.6488 30.5704 57.8787 30.6749 58.065 30.9057C58.2666 31.1352 58.3823 31.4404 58.4123 31.8215C58.4399 32.172 58.3781 32.5526 58.227 32.9632C58.091 33.3726 57.8393 33.7682 57.4719 34.1498C56.7593 35.0034 56.0292 35.8276 55.2815 36.6226C54.5326 37.4023 53.7549 38.1076 52.9484 38.7385C52.1559 39.3529 51.3475 39.8613 50.523 40.2636C49.6985 40.6658 48.8532 40.901 47.9872 40.9692C46.7565 41.0661 45.7594 40.8301 44.9961 40.2615C44.2468 39.6763 43.8194 38.7132 43.7138 37.3719C43.6587 36.6708 43.7034 35.9772 43.8482 35.291C43.9929 34.6049 44.1775 33.9386 44.4018 33.2922C44.6249 32.6305 44.8656 31.9981 45.1239 31.3951C45.381 30.7767 45.5949 30.1925 45.7657 29.6423C45.826 29.4382 45.9312 29.1232 46.0811 28.6973C46.2463 28.2703 46.4184 27.835 46.5975 27.3915C46.8011 26.8694 47.0174 26.3156 47.2465 25.7302Z" fill="black"/>
<path d="M58.0779 22.9721C58.4577 22.9422 58.7868 22.9469 59.0651 22.9864C59.3434 23.0258 59.5821 23.145 59.7812 23.3441C59.9791 23.5279 60.1375 23.7914 60.2562 24.1348C60.3738 24.463 60.4541 24.9014 60.4973 25.45L60.7042 28.0792L65.4292 23.4287C66.1537 22.7275 66.9034 22.3465 67.6783 22.2855C68.1341 22.2496 68.5224 22.3264 68.843 22.5159C69.1637 22.7053 69.3379 22.9753 69.3654 23.3259C69.3822 23.5393 69.3243 23.7739 69.1915 24.0297C69.074 24.2843 68.8804 24.5449 68.6109 24.8115L61.5481 31.8083L62.0663 34.896C62.1251 35.6428 62.4203 35.9953 62.9521 35.9535C63.5295 35.908 64.2344 35.6379 65.0669 35.1429C65.8982 34.6328 66.8512 33.9213 67.926 33.0086L70.3958 30.882C70.6561 30.6928 70.9306 30.5868 71.2193 30.5641C71.5384 30.539 71.8057 30.633 72.0212 30.8461C72.2507 31.0427 72.3793 31.3163 72.4068 31.6668C72.4368 32.0479 72.3273 32.5012 72.0782 33.0269C71.8443 33.5514 71.3824 34.0938 70.6927 34.6542C69.6167 35.5516 68.6673 36.3088 67.8444 36.9257C67.0367 37.5413 66.2896 38.0525 65.6031 38.4592C64.9306 38.8496 64.2964 39.1448 63.7006 39.3451C63.1201 39.5441 62.5259 39.6676 61.9181 39.7154C60.5507 39.823 59.4945 39.5151 58.7496 38.7916C58.0199 38.0669 57.5866 36.8358 57.4499 35.0983L52.5 39C52.2293 39.2513 51.7815 39.3858 51.5 39.5C51.2045 39.6306 50.7583 39.9797 50.5 40C50.0138 40.0383 50.2541 40.503 49.8994 40.2702C49.5448 40.0374 49.3525 39.7305 49.3225 39.3495C49.2889 38.9227 49.5294 38.4821 50.044 38.0275L56.5814 31.3481L56.1442 25.7926C56.0902 25.1068 56.1552 24.5726 56.3391 24.1901C56.5231 23.8075 56.7382 23.5299 56.9845 23.3572C57.2296 23.1692 57.4655 23.0586 57.6922 23.0254C57.9189 22.9922 58.0475 22.9744 58.0779 22.9721Z" fill="black"/>
<path d="M78.5904 25.1533C77.8763 25.2095 77.1994 25.4468 76.5596 25.8652C75.9339 26.2671 75.3861 26.7857 74.9163 27.4207C74.4604 28.0394 74.11 28.734 73.8649 29.5048C73.6186 30.2603 73.526 31.0267 73.5872 31.804C73.61 32.0936 73.658 32.4118 73.7311 32.7588C73.8031 33.0905 73.9194 33.4034 74.0802 33.6975C74.2549 33.9751 74.4868 34.2022 74.7759 34.3788C75.065 34.5554 75.4375 34.6258 75.8933 34.5899C76.5922 34.5349 77.254 34.2988 77.8785 33.8816C78.5171 33.448 79.0712 32.9136 79.5411 32.2785C80.0097 31.6282 80.3659 30.9101 80.6098 30.1241C80.8537 29.3381 80.9451 28.5565 80.8839 27.7792C80.86 27.4744 80.8126 27.1637 80.7418 26.8472C80.685 26.5143 80.5699 26.2167 80.3963 25.9543C80.238 25.6907 80.0155 25.4858 79.7288 25.3397C79.4409 25.1783 79.0615 25.1162 78.5904 25.1533ZM79.4589 21.0363C80.0363 20.9909 80.6576 21.0186 81.323 21.1196C82.0035 21.2194 82.6393 21.4301 83.2302 21.7516C83.8212 22.0732 84.323 22.5244 84.7356 23.1054C85.1623 23.6699 85.4104 24.3942 85.4799 25.2781C85.5159 25.7354 85.4965 26.266 85.4218 26.87C85.3458 27.4587 85.2114 28.0827 85.0187 28.742C85.185 28.9129 85.37 29.0287 85.5735 29.0894C85.777 29.15 85.9927 29.1714 86.2207 29.1534C86.5397 29.1283 86.882 29.0094 87.2474 28.7966C87.6281 28.5826 88.0122 28.3147 88.3996 27.9928C88.787 27.6709 89.1715 27.311 89.553 26.9129C89.9344 26.5148 90.2931 26.1185 90.6289 25.724C90.9648 25.3296 91.2645 24.9609 91.528 24.6181C91.8055 24.2589 92.034 23.9572 92.2135 23.713C92.3115 23.598 92.4364 23.5345 92.5884 23.5225C92.8011 23.5058 93 23.6051 93.1851 23.8206C93.3691 24.0208 93.4766 24.3191 93.5078 24.7153C93.539 25.1116 93.4534 25.5784 93.2511 26.1158C93.064 26.6519 92.6735 27.227 92.0798 27.8412C91.7463 28.2662 91.3644 28.7563 90.9342 29.3116C90.504 29.8668 90.041 30.394 89.5451 30.8931C89.0493 31.3922 88.5253 31.8245 87.9732 32.19C87.421 32.5555 86.8562 32.761 86.2788 32.8064C85.8838 32.8375 85.4915 32.807 85.1021 32.715C84.7278 32.6218 84.34 32.4529 83.9385 32.2085C83.4587 33.1051 82.8969 33.9314 82.2532 34.6875C81.6095 35.4436 80.8743 36.1072 80.0478 36.6783C79.2366 37.2483 78.3403 37.7099 77.3591 38.0631C76.3943 38.4304 75.3497 38.6583 74.2253 38.7468C73.7999 38.7803 73.2995 38.7353 72.7241 38.6119C72.1487 38.4885 71.5878 38.2566 71.0412 37.9162C70.5086 37.5594 70.043 37.0823 69.6443 36.485C69.2457 35.8876 69.011 35.1393 68.9402 34.24C68.8922 33.6304 68.9334 32.891 69.0638 32.022C69.1941 31.1529 69.4214 30.2532 69.7457 29.3229C70.084 28.3761 70.5222 27.4368 71.0604 26.505C71.6126 25.5567 72.2865 24.6986 73.0822 23.9305C73.8767 23.1472 74.8041 22.4991 75.8645 21.9863C76.9237 21.4582 78.1218 21.1415 79.4589 21.0363Z" fill="black"/>
<path d="M93.4886 30.0077C93.3491 30.3714 93.2143 30.796 93.0844 31.2817C92.9684 31.7509 92.9248 32.1684 92.9536 32.5341C92.9716 32.7628 93.0316 32.9421 93.1335 33.0721C93.2355 33.2021 93.4156 33.2569 93.6739 33.2366C93.993 33.2115 94.3808 33.0889 94.8375 32.869C95.3081 32.6326 95.8049 32.3404 96.3279 31.9925C96.8649 31.6282 97.4141 31.2246 97.9754 30.7817C98.5508 30.3224 99.118 29.856 99.677 29.3826C100.235 28.894 100.763 28.4154 101.261 27.9467C101.773 27.4617 102.228 27.0195 102.624 26.6203C102.737 26.504 102.876 26.4165 103.039 26.3576C103.203 26.2987 103.345 26.2645 103.467 26.2549C103.771 26.231 104.03 26.3179 104.244 26.5158C104.459 26.7136 104.579 26.9878 104.607 27.3384C104.632 27.6584 104.554 28.025 104.373 28.438C104.191 28.851 103.849 29.2689 103.348 29.6918C102.446 30.6676 101.533 31.5982 100.609 32.4837C99.685 33.3693 98.7537 34.1633 97.8153 34.8659C96.8909 35.5521 95.9568 36.1164 95.0132 36.5587C94.0848 36.9998 93.1647 37.2563 92.2531 37.328C91.6301 37.377 91.0993 37.3345 90.6607 37.2003C90.2373 37.0649 89.885 36.8626 89.6039 36.5933C89.338 36.3229 89.1363 35.9937 88.9988 35.6058C88.8612 35.2179 88.775 34.803 88.7403 34.361C88.6815 33.6142 88.7279 32.8437 88.8794 32.0497C89.0449 31.2392 89.2539 30.4943 89.5062 29.815C89.9444 28.5843 90.3908 27.3607 90.8454 26.1441C91.3001 24.9274 91.7169 23.8135 92.096 22.8022L97.8411 7.51274C98.0678 6.89681 98.3995 6.44897 98.8361 6.16924C99.288 5.88831 99.7494 5.72931 100.22 5.69224C100.691 5.65517 101.127 5.75124 101.527 5.98045C101.943 6.20846 102.173 6.61205 102.219 7.19121C102.24 7.46556 102.195 7.76052 102.082 8.07611C101.985 8.3905 101.851 8.73074 101.681 9.09684C101.357 9.84307 100.971 10.7553 100.52 11.8336C100.085 12.9106 99.6118 14.0827 99.1 15.3499C98.6034 16.6158 98.0882 17.9369 97.5544 19.3131C97.0346 20.6729 96.52 22.0016 96.0106 23.2992C95.5164 24.5956 95.0478 25.8287 94.6048 26.9984C94.1757 28.1516 93.8037 29.1547 93.4886 30.0077Z" fill="black"/>
<path d="M109.951 22.6851C109.237 22.7413 108.56 22.9786 107.92 23.397C107.294 23.799 106.747 24.3175 106.277 24.9526C105.821 25.5712 105.471 26.2659 105.225 27.0366C104.979 27.7921 104.887 28.5585 104.948 29.3358C104.971 29.6254 105.018 29.9437 105.092 30.2907C105.164 30.6224 105.28 30.9353 105.441 31.2293C105.615 31.507 105.847 31.7341 106.136 31.9107C106.426 32.0873 106.798 32.1577 107.254 32.1218C107.953 32.0668 108.614 31.8307 109.239 31.4135C109.878 30.9798 110.432 30.4455 110.902 29.8104C111.37 29.1601 111.726 28.442 111.97 27.656C112.214 26.87 112.306 26.0884 112.244 25.3111C112.22 25.0062 112.173 24.6956 112.102 24.3791C112.046 24.0462 111.93 23.7485 111.757 23.4861C111.599 23.2226 111.376 23.0177 111.089 22.8716C110.801 22.7102 110.422 22.6481 109.951 22.6851ZM110.819 18.5682C111.397 18.5227 112.018 18.5505 112.684 18.6515C113.364 18.7513 114 18.962 114.591 19.2835C115.182 19.6051 115.684 20.0563 116.096 20.6373C116.523 21.2018 116.771 21.926 116.84 22.81C116.876 23.2673 116.857 23.7979 116.782 24.4018C116.706 24.9906 116.572 25.6146 116.379 26.2738C116.546 26.4448 116.731 26.5606 116.934 26.6212C117.138 26.6819 117.353 26.7033 117.581 26.6853C117.9 26.6602 118.243 26.5413 118.608 26.3285C118.989 26.1145 119.373 25.8466 119.76 25.5247C120.148 25.2028 120.532 24.8428 120.913 24.4448C121.295 24.0467 121.654 23.6504 121.989 23.2559C122.325 22.8614 122.625 22.4928 122.889 22.15C123.166 21.7908 123.395 21.4891 123.574 21.2449C123.672 21.1299 123.797 21.0663 123.949 21.0544C124.162 21.0376 124.361 21.137 124.546 21.3525C124.73 21.5527 124.837 21.8509 124.868 22.2472C124.9 22.6435 124.814 23.1103 124.612 23.6476C124.425 24.1838 124.034 24.7589 123.44 25.3731C123.107 25.798 122.725 26.2882 122.295 26.8434C121.865 27.3987 121.401 27.9259 120.906 28.425C120.41 28.9241 119.886 29.3564 119.334 29.7219C118.782 30.0874 118.217 30.2929 117.639 30.3383C117.244 30.3694 116.852 30.3389 116.463 30.2469C116.088 30.1537 115.701 29.9848 115.299 29.7404C114.819 30.6369 114.257 31.4633 113.614 32.2194C112.97 32.9755 112.235 33.6391 111.408 34.2102C110.597 34.7801 109.701 35.2417 108.72 35.595C107.755 35.9623 106.71 36.1902 105.586 36.2787C105.16 36.3122 104.66 36.2672 104.085 36.1438C103.509 36.0204 102.948 35.7885 102.402 35.4481C101.869 35.0913 101.404 34.6142 101.005 34.0168C100.606 33.4194 100.372 32.6711 100.301 31.7719C100.253 31.1622 100.294 30.4229 100.424 29.5538C100.555 28.6848 100.782 27.7851 101.106 26.8548C101.444 25.908 101.883 24.9687 102.421 24.0369C102.973 23.0886 103.647 22.2305 104.443 21.4624C105.237 20.6791 106.165 20.031 107.225 19.5182C108.284 18.9901 109.482 18.6734 110.819 18.5682Z" fill="black"/>
<path d="M130.807 16.9951C131.476 16.9425 132.067 16.9803 132.582 17.1085C133.097 17.2367 133.536 17.3861 133.901 17.5567C134.316 17.7695 134.686 18.0087 135.013 18.2744C135.215 18.1204 135.432 17.973 135.666 17.8319C135.87 17.7085 136.099 17.5985 136.351 17.5019C136.602 17.3902 136.857 17.3241 137.115 17.3038C137.783 17.2512 138.311 17.3477 138.697 17.5933C139.083 17.839 139.292 18.1523 139.321 18.5333C139.337 18.7315 139.299 18.9338 139.209 19.1403L134.673 29.6879L135.075 29.2651C136.785 28.0724 138.194 27.1333 139.302 26.4481C140.409 25.7475 141.293 25.2256 141.954 24.8822C142.615 24.5388 143.087 24.3252 143.371 24.2415C143.669 24.1414 143.856 24.0884 143.932 24.0824C144.281 24.0549 144.558 24.1711 144.762 24.4311C144.98 24.6747 145.104 24.9946 145.136 25.3909C145.17 25.8329 145.077 26.2927 144.854 26.7702C144.647 27.2466 144.293 27.6042 143.792 27.843C143.136 28.2473 142.368 28.6911 141.489 29.1744C140.609 29.6424 139.694 30.1592 138.745 30.7246C137.795 31.29 136.843 31.9171 135.888 32.6056C134.948 33.2778 134.073 34.0137 133.264 34.8134L129.475 43.1859C129.178 44.0834 128.9 44.8184 128.639 45.391C128.394 45.9624 128.139 46.4195 127.876 46.7623C127.612 47.1051 127.333 47.3494 127.039 47.4953C126.745 47.6411 126.4 47.7296 126.005 47.7607C125.412 47.8073 124.925 47.6386 124.543 47.2546C124.177 46.8694 123.97 46.3872 123.925 45.808C123.877 45.1984 123.965 44.4783 124.191 43.6478C124.416 42.8173 124.749 41.9092 125.192 40.9236C125.65 39.9521 126.211 38.9188 126.874 37.8238C127.538 36.744 128.284 35.6348 129.112 34.4962L131.653 30.6616C131.118 31.2405 130.584 31.7425 130.052 32.1678C129.52 32.5931 129.005 32.948 128.508 33.2325C128.009 33.5018 127.536 33.7077 127.089 33.8503C126.656 33.9916 126.273 34.0755 125.939 34.1018C125.331 34.1496 124.758 34.0567 124.22 33.823C123.681 33.5741 123.201 33.2131 122.782 32.74C122.377 32.2657 122.042 31.6941 121.775 31.0249C121.509 30.3558 121.344 29.6174 121.28 28.8096C121.148 27.1331 121.348 25.5914 121.879 24.1847C122.426 22.7768 123.163 21.561 124.092 20.5371C125.034 19.4968 126.093 18.6697 127.267 18.0558C128.457 17.4407 129.637 17.0872 130.807 16.9951ZM130.258 21.0869C129.544 21.1431 128.867 21.3805 128.227 21.7989C127.586 22.202 127.031 22.7211 126.561 23.3562C126.09 23.976 125.732 24.6789 125.488 25.4649C125.245 26.2509 125.154 27.0478 125.218 27.8556C125.237 28.0994 125.273 28.3649 125.327 28.6521C125.394 28.9229 125.498 29.1754 125.638 29.4097C125.794 29.6428 126 29.8336 126.257 29.9821C126.527 30.1142 126.883 30.1629 127.323 30.1283C127.642 30.1031 128.004 29.9367 128.408 29.6288C128.825 29.3046 129.245 28.9111 129.668 28.4485C130.104 27.9694 130.522 27.4535 130.922 26.9006C131.32 26.3325 131.675 25.7832 131.985 25.2527C132.31 24.721 132.563 24.2487 132.744 23.8357C132.925 23.4074 133.007 23.0942 132.992 22.8961C132.965 22.5608 132.851 22.2784 132.65 22.0489C132.447 21.8041 132.202 21.6087 131.916 21.4626C131.644 21.3152 131.353 21.2154 131.044 21.1631C130.748 21.0944 130.486 21.069 130.258 21.0869Z" fill="black"/>
<path d="M155.68 17.1769C156.079 16.8081 156.416 16.5285 156.692 16.3381C156.981 16.1313 157.229 15.9814 157.436 15.8885C157.642 15.7803 157.827 15.712 157.993 15.6836C158.175 15.654 158.356 15.6321 158.539 15.6177C158.858 15.5926 159.095 15.6966 159.251 15.9297C159.406 16.1475 159.493 16.386 159.514 16.6451C159.531 16.8585 159.508 17.0596 159.447 17.2485L155.182 28.3268C155.868 27.7207 156.661 27.1215 157.563 26.5292C158.478 25.9204 159.352 25.3762 160.186 24.8965C161.034 24.4004 161.759 23.9982 162.361 23.6901C162.979 23.3808 163.334 23.2225 163.425 23.2154C163.805 23.1855 164.15 23.304 164.462 23.5708C164.773 23.8377 164.946 24.1921 164.981 24.6341C165.012 25.0304 164.893 25.4615 164.624 25.9274C164.37 26.3921 163.887 26.8595 163.175 27.3296C162.159 28.0077 161.272 28.5913 160.515 29.0802C159.758 29.5539 159.088 29.9823 158.507 30.3655C157.925 30.7486 157.41 31.0959 156.961 31.4073C156.511 31.7187 156.085 32.0359 155.682 32.359C155.295 32.6809 154.909 33.018 154.524 33.3703C154.155 33.7367 153.753 34.1595 153.316 34.6385C153.039 35.5805 152.758 36.4844 152.475 37.3502C152.207 38.2147 151.953 38.9785 151.715 39.6413C151.492 40.303 151.305 40.8391 151.154 41.2497C151.002 41.6604 150.921 41.8815 150.908 41.9132C149.879 44.5706 148.627 45.9573 147.153 46.0733C146.545 46.1211 146.035 45.9542 145.623 45.5726C145.212 45.2062 144.98 44.6801 144.926 43.9942C144.875 43.3541 144.901 42.708 145.002 42.0559C145.12 41.4178 145.347 40.7022 145.682 39.9091C146.032 39.1147 146.497 38.2194 147.076 37.223C147.671 36.2407 148.42 35.0775 149.324 33.7336L153.153 24.1158C151.088 27.0081 149.184 29.2435 147.443 30.8221C145.703 32.4007 144.027 33.2533 142.416 33.3801C141.9 33.4207 141.449 33.3335 141.066 33.1183C140.683 32.9184 140.47 32.5441 140.427 31.9954C140.367 31.2333 140.481 30.3579 140.771 29.369C140.942 28.834 141.118 28.3448 141.297 27.9013C141.475 27.4426 141.661 26.9909 141.855 26.5462C142.049 26.0862 142.247 25.5952 142.45 25.0731C142.669 24.5498 142.898 23.9644 143.138 23.3168C143.391 22.6527 143.66 21.8954 143.945 21.0449C144.244 20.1779 144.57 19.1708 144.923 18.0235C145.18 17.4052 145.541 16.9473 146.007 16.65C146.472 16.3374 146.932 16.1631 147.388 16.1272C147.859 16.0902 148.263 16.1734 148.6 16.3769C148.951 16.564 149.141 16.8404 149.17 17.2062C149.184 17.3891 149.166 17.5515 149.116 17.6935L145.631 26.7321C145.453 27.1908 145.374 27.5498 145.395 27.8089C145.413 28.0375 145.513 28.1446 145.695 28.1303C145.862 28.1171 146.068 28.0165 146.314 27.8286C146.559 27.6406 146.787 27.4309 146.998 27.1996L155.68 17.1769Z" fill="black"/>
</g>
</g>
</svg>
