<svg width="28" height="28" viewBox="0 0 28 28" fill="none" xmlns="http://www.w3.org/2000/svg">
<g id="Icon">
<path id="Vector" d="M17.6039 2.54426C16.75 2.77307 16.0219 3.33173 15.5799 4.09735C15.1378 4.86296 15.0181 5.77281 15.2469 6.62674L18.6978 19.5058C18.9266 20.3597 19.4853 21.0877 20.2509 21.5298C21.0165 21.9718 21.9263 22.0916 22.7803 21.8628C23.6342 21.634 24.3623 21.0753 24.8043 20.3097C25.2463 19.5441 25.3661 18.6342 25.1373 17.7803C24.9085 16.9264 24.3498 16.1983 23.5842 15.7563C22.8186 15.3142 21.9087 15.1945 21.0548 15.4233L8.1758 18.8742C7.32187 19.103 6.59381 19.6617 6.15178 20.4273C5.70975 21.1929 5.58997 22.1027 5.81878 22.9567C6.04759 23.8106 6.60625 24.5387 7.37186 24.9807C8.13748 25.4227 9.04733 25.5425 9.90126 25.3137C10.7552 25.0849 11.4833 24.5262 11.9253 23.7606C12.3673 22.995 12.4871 22.0851 12.2583 21.2312L8.80736 8.3522C8.57855 7.49827 8.01989 6.77021 7.25428 6.32818C6.48866 5.88615 5.57881 5.76637 4.72488 5.99518C3.87095 6.22399 3.14289 6.78265 2.70086 7.54827C2.25883 8.31388 2.13905 9.22373 2.36786 10.0777C2.59667 10.9316 3.15533 11.6597 3.92094 12.1017C4.68656 12.5437 5.59641 12.6635 6.45034 12.4347L19.3294 8.98376C20.1833 8.75495 20.9113 8.19629 21.3534 7.43068C21.7954 6.66507 21.9152 5.75521 21.6864 4.90128C21.4576 4.04735 20.8989 3.31929 20.1333 2.87726C19.3677 2.43523 18.4578 2.31545 17.6039 2.54426Z" stroke="#F33D01" stroke-width="2" stroke-linecap="round" stroke-linejoin="round"/>
</g>
</svg>
